<?xml version="1.0" encoding="utf-8" standalone="no"?>
<!DOCTYPE svg PUBLIC "-//W3C//DTD SVG 1.1//EN" "http://www.w3.org/Graphics/SVG/1.1/DTD/svg11.dtd">
<svg version="1.1" viewBox="5 5 2374 660" xmlns="http://www.w3.org/2000/svg">
  <defs />
  <g id="Layer_01">
    <path d="M1403.8958,263.72305 C1419.1063,258.9772 1428.8016,253.9814 1439.5382,247.16959 C1455.6417,236.95258 1474.0874,222.65004 1486.0251,189.12181 C1470.4055,196.53638 1452.4882,200.7551 1435.1318,199.14322 C1419.289,197.67192 1403.9136,191.3426 1396.1869,186.00279 C1398.5231,160.19276 1398.8103,134.01189 1397.0463,108.00757 C1396.1642,95.00541 1394.7693,82.047386 1392.8315,69.10959 C1391.8627,62.64069 1390.7582,56.17684 1389.6,49.89061 C1388.4419,43.604374 1387.23,37.495747 1385.4213,30.446795 C1385.0002,28.806627 1384.5471,27.11555 1383.9235,25.614584 C1383.2997,24.113619 1382.5055,22.802769 1381.6271,21.710873 C1379.8701,19.527082 1377.7761,18.219118 1375.4082,17.72565 C1373.0404,17.232182 1370.3986,17.553213 1367.5035,18.680927 C1366.0562,19.244785 1364.5453,20.010315 1363.116,20.932774 C1361.6866,21.855232 1360.3389,22.934624 1359.0345,23.999102 C1351.4766,30.167156 1345.3771,35.834503 1339.3135,41.900703 C1333.2496,47.9669 1327.2218,54.43195 1321.4763,61.140522 C1309.9855,74.55768 1299.6249,88.948944 1290.5103,104.11458 C1281.3955,119.28021 1273.5269,135.22021 1267.0632,151.57762 C1260.5997,167.93504 1255.5413,184.70988 1251.8992,201.5539 C1236.4907,200.02083 1221.1857,197.061 1206.3091,192.63841 C1190.0063,187.79181 1174.2183,181.1885 1159.2993,173.10295 C1160.9377,194.08641 1166.9692,214.37524 1175.4291,234.15 C1180.8365,246.79016 1187.2362,259.2203 1197.2498,268.1036 C1204.204,274.27286 1212.9011,278.73154 1221.759,281.7034 C1221.7603,281.70383 1221.7616,281.70428 1221.763,281.70468 C1215.0664,334.7064 1200.7644,386.1702 1185.8147,432.04526 C1174.378,467.14047 1162.5623,498.9648 1134.3716,530.72424 C1099.5073,570.00226 1039.5977,609.1809 992.4021,625.4293 C1009.2809,628.2728 1026.3619,629.94904 1043.5184,630.3206 C1073.5139,630.97034 1103.7393,627.63226 1127.4646,622.62775 C1133.0386,635.65967 1138.0984,649.53674 1142.4856,663.6313 C1151.0065,691.0066 1156.9897,719.2024 1160.377,747.6114 C1190.8461,699.19867 1189.4028,645.7395 1197.3707,609.95416 C1200.1631,597.41315 1204.1112,587.0427 1210.121,572.82385 C1213.1152,565.7397 1216.6212,557.7004 1220.689,549.8997 C1246.041,501.28235 1293.2144,461.93903 1328.8247,415.9906 C1354.4615,382.9111 1374.1053,346.40814 1389.8478,307.78915 C1395.5514,293.7968 1400.743,279.5267 1403.8958,263.72305 z" stroke="Black" stroke-width="0" fill="#6DD4FF" fill-opacity="1" />
  </g>
  <g id="Layer_02">
    <path d="M1314.9684,147.99605 C1315.1106,144.41168 1313.3406,140.06973 1310.4587,137.10867 C1307.5768,134.14761 1303.583,132.56741 1299.5714,132.59897 C1295.5597,132.63054 1291.5304,134.27386 1288.684,137.10867 C1285.8376,139.94348 1284.1743,143.96977 1284.1743,147.99605 C1284.1743,152.02235 1285.8376,156.04863 1288.684,158.88344 C1291.5304,161.71823 1295.5597,163.36157 1299.5714,163.39314 C1303.583,163.42471 1307.5768,161.84451 1310.4587,158.88344 C1313.3406,155.92236 1315.1106,151.58041 1314.9684,147.99605 z" stroke="Black" stroke-width="0" fill="#060C34" fill-opacity="1" />
  </g>
  <polygon fill="#7F8DF0" fill-opacity="1" points="1396.71,268.27075 1399.3052,270.88153 1402.7605,272.1509 1406.4287,271.84103 1407.9053,271.3942 1409.3529,270.9444 1412.1655,270.03476 1413.5327,269.57428 1416.194,268.63943 1417.49,268.16382 1420.0184,267.19733 1421.2529,266.706 1423.6675,265.7057 1424.8491,265.1955 1427.1663,264.15607 1428.3038,263.6265 1430.5415,262.5469 1431.6434,261.9963 1433.8182,260.8735 1434.8931,260.30112 1437.023,259.13385 1438.08,258.53882 1440.1836,257.3254 1441.2323,256.7066 1443.329,255.44405 1444.3793,254.79991 1449.2205,251.72798 1450.8757,250.6263 1455.9346,247.04895 1459.3627,244.41043 1464.5361,240.011 1466.2594,238.41632 1471.3944,233.2151 1474.7596,229.37093 1479.6781,222.99825 1481.2738,220.70317 1485.8951,213.27255 1488.8257,207.84732 1492.9539,198.95518 1494.2505,195.78061 1481.7101,180.0314 1478.9948,181.22543 1477.6213,181.79506 1470.6223,184.35019 1466.3398,185.63269 1460.5684,187.02702 1457.6676,187.58182 1451.8608,188.39229 1447.52,188.72794 1440.3583,188.74498 1438.9417,188.66458 1433.5673,188.09114 1429.7284,187.42667 1424.6833,186.25363 1417.4894,184.0077 1414.1583,182.73016 1408.2617,180.03749 1404.3771,177.85101 1403.1564,177.05219 1407.4728,187.02116 1409.1342,167.1698 1410.0133,147.21127 1410.1573,137.20628 1410.0018,122.18303 1409.1002,102.15351 1408.3519,92.15263 1406.2626,72.20807 1404.1804,57.3226 1402.5488,47.444553 1399.7406,32.709957 1397.6699,23.909895 1396.2888,20.169188 1395.451,18.36312 1393.4346,14.8963995 1392.2363,13.251785 1389.4316,10.201486 1387.8221,8.832131 1384.2256,6.510476 1382.273,5.5981083 1378.1848,4.3313317 1376.1045,3.9816287 1371.9897,3.813776 1369.9879,3.9672115 1366.1367,4.6765285 1360.7524,6.554931 1359.0502,7.358107 1354.1572,10.2157545 1351.036,12.468031 1339.2266,22.494164 1329.2479,31.76546 1324.3817,36.572525 1314.9137,46.518024 1310.3188,51.6513 1301.4261,62.226624 1297.135,67.66287 1288.8789,78.81691 1284.9197,84.52789 1277.3531,96.20071 1273.7511,102.15519 1266.9209,114.28117 1263.6973,120.44489 1257.6415,132.95319 1254.8125,139.28938 1249.5587,152.10466 1247.1365,158.5753 1242.7054,171.62103 1240.6971,178.1872 1237.0958,191.3845 1253.56,184.86064 1248.1829,184.18382 1237.4867,182.45662 1224.2664,179.59622 1212.5566,176.3551 1204.2543,173.62933 1197.317,171.06982 1185.0507,165.89511 1171.8055,159.3272 1169.2107,157.9145 1141.2615,174.51132 1141.6096,178.91188 1142.957,189.79608 1145.4055,202.62769 1146.9391,208.94792 1150.5609,221.39809 1155.6084,235.61101 1160.7703,248.04211 1165.2313,257.24448 1168.9802,263.84674 1174.2817,271.6577 1177.3229,275.45923 1181.8396,280.3483 1184.3097,282.69016 1188.8362,286.4723 1193.549,289.8468 1200.3711,293.94196 1209.3739,298.23596 1215.4381,300.55194 1215.4388,300.5522 1202.0396,279.21277 1199.0167,298.28714 1193.3496,326.62372 1190.0759,340.62393 1182.815,368.18707 1177.552,386.17432 1173.4369,399.42682 1164.9249,425.23773 1157.1503,446.98322 1152.4333,458.7005 1144.6735,475.5354 1140.4453,483.77893 1137.3761,489.2148 1132.329,497.31345 1124.6381,508.08978 1120.3127,513.4955 1111.9237,522.9858 1105.2509,529.8281 1094.2943,540.0946 1078.2512,553.54395 1069.7501,560.062 1056.5745,569.4679 1038.5353,581.1047 1029.4528,586.4474 1011.48517,596.0025 998.44037,602.02515 990.08624,605.43805 989.15564,644.6999 1009.2751,647.2853 1016.0161,647.9088 1031.2345,648.86255 1041.412,649.1451 1052.0037,649.1342 1060.8473,648.8951 1072.5121,648.27515 1089.5979,646.7596 1097.8927,645.7639 1113.8423,643.3602 1128.7511,640.4765 1111.1842,629.5913 1118.1212,646.2659 1123.1552,659.8921 1126.142,668.7185 1132.1193,688.56 1135.3915,701.104 1139.3688,718.819 1143.4391,741.80115 1144.1832,746.93225 1173.8807,756.1102 1179.6184,746.0408 1182.1923,740.9846 1186.7914,730.86096 1188.8334,725.80554 1192.4525,715.7382 1194.0448,710.7361 1198.0555,695.9161 1200.1833,686.24054 1203.4357,667.54425 1205.2644,654.23816 1208.2788,630.0263 1209.8604,619.41205 1211.9891,608.80096 1213.6047,602.7047 1216.6141,593.42194 1218.652,587.89417 1223.0802,576.7492 1225.9221,569.9311 1231.3173,558.0459 1234.5574,551.7148 1241.9346,539.08655 1244.6212,534.9226 1253.2877,522.53815 1259.5156,514.3521 1272.8424,498.07718 1283.4071,485.8857 1301.6057,465.40472 1323.4473,440.14993 1333.9672,427.0642 1344.4934,412.86688 1349.0608,406.27667 1355.6493,396.25922 1363.9608,382.6673 1367.9211,375.7753 1375.4677,361.80975 1380.8132,351.18475 1389.1573,333.2093 1398.3019,311.23538 1400.8937,304.48938 1405.2933,292.03333 1407.9412,283.44324 1409.5383,277.56415 1412.2354,265.38678 1412.1571,261.70645 1410.5309,258.404 1407.6613,256.09824 1403.3444,255.23703 1399.8097,256.26514 1397.0406,258.69077 1395.5562,262.05936 1392.8073,273.05164 1391.1974,278.39963 1388.5305,286.28583 1384.0624,297.9209 1381.3936,304.343 1371.9774,325.35187 1363.4777,342.4388 1358.0732,352.49435 1350.4928,365.6596 1346.5355,372.1344 1338.2734,384.85983 1331.7612,394.20102 1327.2642,400.32877 1316.9396,413.49466 1306.5408,425.73544 1284.5367,449.8289 1265.721,469.88864 1254.5538,482.093 1240.1458,498.75467 1233.2579,507.3169 1223.4661,520.53546 1220.3728,525.0574 1211.7,539.02234 1207.8021,546.1521 1201.4941,559.09735 1198.2968,566.2202 1193.3202,577.82684 1190.8992,583.88055 1187.1049,594.59375 1184.9586,601.8816 1182.0936,614.319 1180.0562,625.84644 1176.3586,650.16223 1174.2773,662.7928 1170.8235,679.9086 1168.6862,688.51654 1164.8185,701.4062 1163.3292,705.68317 1160.0115,714.1881 1158.1678,718.40906 1154.0856,726.7774 1151.8336,730.9201 1146.873,739.1126 1175.9202,742.96515 1175.2726,737.45386 1171.5796,712.7276 1167.8286,693.617 1164.6798,680.0543 1158.8292,658.5442 1155.8682,648.9471 1150.8228,634.0639 1143.7449,615.6643 1121.6919,605.7075 1108.222,607.9367 1093.6719,609.7287 1086.0878,610.4295 1070.4902,611.3895 1059.8942,611.66656 1051.9067,611.6661 1042.4084,611.41895 1033.3088,610.9194 1019.6961,609.6952 1013.66364,608.9719 995.6485,606.1589 1003.6393,642.24115 1013.51953,638.52234 1028.5981,632.04095 1048.9882,621.9034 1059.204,616.2558 1079.4478,603.958 1094.274,593.9669 1103.8951,586.9904 1122.2893,572.39996 1135.1436,560.9805 1143.1768,553.17865 1153.6212,541.9977 1159.1252,535.4855 1169.048,522.3651 1175.6062,512.4511 1179.5975,505.81802 1185.0629,495.84378 1194.0397,475.7154 1199.0248,462.29782 1206.7046,438.8528 1214.7827,411.92883 1218.6881,398.02985 1223.6802,379.09204 1230.529,349.91107 1233.5887,335.01553 1238.801,304.71356 1241.4863,284.19666 1228.0858,262.8568 1228.0851,262.8566 1224.2339,261.51093 1218.772,259.10025 1214.9144,256.93918 1212.4261,255.26979 1210.19,253.5171 1208.9884,252.44623 1206.6392,250.05013 1204.9186,248.02406 1201.5806,243.38756 1198.9073,238.96678 1195.3228,232.05183 1190.6224,221.5383 1185.9779,209.51201 1182.6733,199.21156 1181.2737,194.06177 1179.0123,183.75496 1177.7057,175.14664 1177.3373,171.69458 1152.1906,189.79874 1155.2305,191.34822 1170.7261,198.51476 1185.0568,204.10706 1193.1583,206.84857 1202.8534,209.7424 1216.4766,213.11809 1231.764,215.99414 1244.0701,217.64026 1250.2383,218.24715 1269.5673,199.09825 1272.4897,187.1166 1274.1409,181.14522 1277.8234,169.26102 1279.8534,163.35588 1284.2894,151.63937 1286.6943,145.83604 1291.8729,134.35883 1294.6443,128.69261 1300.543,117.52366 1303.6672,112.02844 1310.2562,101.23447 1313.7167,95.94263 1320.958,85.58622 1324.7335,80.52781 1332.5809,70.66542 1336.6469,65.86704 1345.0493,56.550037 1349.379,52.035923 1358.2784,43.306896 1368.2928,34.29712 1369.7983,33.140156 1371.6505,31.959345 1372.1364,31.70653 1373.1061,31.299297 1373.2948,31.228605 1373.2478,31.217701 1372.9021,31.176731 1372.6317,31.119944 1372.0042,30.902182 1371.6978,30.747606 1371.2156,30.412336 1371.0701,30.27327 1370.996,30.161966 1371.0604,30.227757 1371.3533,30.667887 1371.5581,31.059958 1372.0273,32.20919 1373.6134,38.45011 1376.6511,52.336643 1378.4507,61.658867 1380.8076,75.72568 1383.3031,94.60902 1384.271,104.093025 1385.6433,123.11798 1386.1777,137.41452 1386.2982,146.94829 1385.9741,165.99724 1384.9011,184.98445 1390.7107,195.96008 1392.7346,197.20078 1398.3461,200.16617 1406.0795,203.44948 1410.312,204.94066 1419.387,207.50453 1425.806,208.81345 1430.7699,209.53258 1437.8425,210.09097 1439.6934,210.14502 1448.8993,209.8722 1454.3658,209.29889 1461.5615,208.09395 1465.1115,207.31406 1472.0983,205.42363 1477.2263,203.73451 1485.5265,200.44641 1487.1458,199.72247 1490.3403,198.21225 1475.5239,188.63785 1474.4717,191.41833 1471.1473,199.12828 1468.8037,203.77397 1465.1202,210.06493 1463.8556,211.9966 1459.9624,217.34048 1457.2933,220.55972 1453.202,224.94305 1451.816,226.29593 1447.6062,230.07486 1444.7649,232.39046 1440.4633,235.60797 1439.0231,236.62373 1434.6971,239.53928 1433.74,240.1618 1431.849,241.37103 1430.9125,241.95851 1429.051,243.10126 1428.1234,243.65724 1426.2678,244.7408 1425.3372,245.26935 1423.4629,246.30237 1422.5165,246.80782 1420.5981,247.79938 1419.6232,248.28607 1417.6344,249.24342 1416.6176,249.7149 1414.5328,250.64738 1413.4615,251.10828 1411.2542,252.02086 1410.1151,252.4732 1407.7609,253.37405 1406.5425,253.82245 1404.0165,254.71542 1402.7063,255.16055 1401.3629,255.6051 1398.1693,257.43616 1396.049,260.44525 1395.3988,264.06857 1396.71,268.27075" xmlns="" />
  <text x="12.64" y="572.6" font-family="Montserrat" font-weight="bold" fill="#060C34" font-size="326.6">W</text>
  <text x="392.9" y="572.6" font-family="Montserrat" font-weight="bold" fill="#060C34" font-size="326.6">h</text>
  <text x="618.7" y="572.6" font-family="Montserrat" font-weight="bold" fill="#060C34" font-size="326.6">a</text>
  <text x="820.3" y="572.6" font-family="Montserrat" font-weight="bold" fill="#060C34" font-size="326.6">l</text>
  <text x="918.5" y="572.6" font-family="Montserrat" font-weight="bold" fill="#060C34" font-size="326.6">e</text>
  <text x="1125" y="572.6" font-family="Montserrat" font-weight="bold" fill="#060C34" font-size="326.6"> </text>
  <text x="1217" y="572.6" font-family="Montserrat" font-weight="bold" fill="#060C34" font-size="326.6">W</text>
  <text x="1597" y="572.6" font-family="Montserrat" font-weight="bold" fill="#060C34" font-size="326.6">a</text>
  <text x="1799" y="572.6" font-family="Montserrat" font-weight="bold" fill="#060C34" font-size="326.6">t</text>
  <text x="1941" y="572.6" font-family="Montserrat" font-weight="bold" fill="#060C34" font-size="326.6">c</text>
  <text x="2133" y="572.6" font-family="Montserrat" font-weight="bold" fill="#060C34" font-size="326.6">h</text>
  <text x="25.97" y="572.6" font-family="Montserrat" font-weight="bold" fill="#7F8DF0" font-size="326.6">W</text>
  <text x="406.2" y="572.6" font-family="Montserrat" font-weight="bold" fill="#7F8DF0" font-size="326.6">h</text>
  <text x="632" y="572.6" font-family="Montserrat" font-weight="bold" fill="#7F8DF0" font-size="326.6">a</text>
  <text x="833.6" y="572.6" font-family="Montserrat" font-weight="bold" fill="#7F8DF0" font-size="326.6">l</text>
  <text x="931.8" y="572.6" font-family="Montserrat" font-weight="bold" fill="#7F8DF0" font-size="326.6">e</text>
  <text x="1139" y="572.6" font-family="Montserrat" font-weight="bold" fill="#7F8DF0" font-size="326.6"> </text>
  <text x="1230" y="572.6" font-family="Montserrat" font-weight="bold" fill="#7F8DF0" font-size="326.6">W</text>
  <text x="1611" y="572.6" font-family="Montserrat" font-weight="bold" fill="#7F8DF0" font-size="326.6">a</text>
  <text x="1812" y="572.6" font-family="Montserrat" font-weight="bold" fill="#7F8DF0" font-size="326.6">t</text>
  <text x="1954" y="572.6" font-family="Montserrat" font-weight="bold" fill="#7F8DF0" font-size="326.6">c</text>
  <text x="2146" y="572.6" font-family="Montserrat" font-weight="bold" fill="#7F8DF0" font-size="326.6">h</text>
</svg>