<?xml version="1.0" encoding="utf-8" standalone="no"?>
<!DOCTYPE svg PUBLIC "-//W3C//DTD SVG 1.1//EN" "http://www.w3.org/Graphics/SVG/1.1/DTD/svg11.dtd">
<svg version="1.1" width="765.1pt" height="765.1pt" viewBox="0 0 765.12 765.12" xmlns="http://www.w3.org/2000/svg">
  <defs />
  <g id="Layer_01">
    <path d="M485.67917,263.69913 C500.89276,258.9523 510.59015,253.9555 521.32874,247.14232 C537.4356,236.92325 555.885,222.61783 567.82513,189.08287 C552.2023,196.4989 534.2815,200.71849 516.9216,199.1063 C501.0756,197.63469 485.697,191.3041 477.9688,185.96321 C480.30554,160.14798 480.5928,133.96184 478.8283,107.95228 C477.946,94.947495 476.55084,81.98686 474.61276,69.046455 C473.6437,62.576256 472.53894,56.11111 471.38052,49.82361 C470.22214,43.536114 469.01013,37.426254 467.20093,30.375883 C466.77997,28.735384 466.32666,27.043966 465.70282,25.542698 C465.079,24.041433 464.28467,22.730318 463.406,21.6382 C461.64874,19.453972 459.5543,18.145742 457.18594,17.652176 C454.81757,17.15861 452.17532,17.479704 449.27972,18.607647 C447.83194,19.171618 446.3208,19.9373 444.89124,20.859947 C443.46164,21.78259 442.1136,22.8622 440.809,23.926891 C433.24948,30.096188 427.1488,35.764675 421.08386,41.832096 C415.01895,47.899517 408.9898,54.365868 403.24326,61.075794 C391.75012,74.49564 381.38733,88.88982 372.2708,104.0585 C363.15433,119.227196 355.2841,135.1704 348.8192,151.53111 C342.3543,167.89182 337.29477,184.67004 333.65198,201.51743 C318.24042,199.98405 302.93225,197.02365 288.05276,192.60016 C271.74673,187.75258 255.95549,181.14795 241.03362,173.06078 C242.67229,194.04845 248.70506,214.34135 257.1665,234.12012 C262.5751,246.76283 268.97604,259.19547 278.9916,268.08057 C285.9472,274.25107 294.64612,278.7106 303.50586,281.6831 C303.50714,281.68353 303.50842,281.68396 303.5097,281.6844 C296.81192,334.69675 282.507,386.17093 267.55426,432.05524 C256.1152,467.15747 244.29703,498.9883 216.10077,530.75415 C181.22949,570.04004 121.30776,609.22656 74.10265,625.4783 C90.984825,628.3223 108.06946,629.99884 125.2293,630.3705 C155.23082,631.0203 185.4623,627.68164 209.19232,622.6761 C214.76753,635.7107 219.82838,649.5905 224.21638,663.6879 C232.73898,691.06866 238.72342,719.27014 242.1113,747.6849 C272.58655,699.26245 271.14316,645.7925 279.1126,609.9999 C281.90552,597.45636 285.85443,587.08386 291.86548,572.8621 C294.8603,565.7766 298.36697,557.7356 302.43552,549.9334 C327.7927,501.30627 374.9755,461.95502 410.59305,415.9973 C436.23505,382.91116 455.8828,346.40088 471.62833,307.7741 C477.3332,293.77896 482.52576,279.50595 485.67917,263.69913 z" stroke="Black" stroke-width="0" fill="#6DD4FF" fill-opacity="1" />
    <path d="M677.69037,343.22226 C660.73596,343.22226 643.78143,343.22226 626.8269,343.22226 C608.9974,397.47662 591.1678,451.73102 573.33826,505.98538 C555.83685,451.73102 538.3354,397.47662 520.834,343.22226 C504.42645,343.22226 488.01886,343.22226 471.61127,343.22226 C453.56293,397.0391 435.51462,450.85593 417.46628,504.67276 C400.18365,450.85593 382.901,397.0391 365.61835,343.22226 C347.24188,343.22226 328.8654,343.22226 310.4889,343.22226 C335.6472,419.79092 360.80545,496.35962 385.96375,572.9283 C404.88715,572.9283 423.81055,572.9283 442.73398,572.9283 C460.12598,521.0804 477.518,469.23242 494.91006,417.3845 C511.7552,469.23242 528.6002,521.0804 545.4454,572.9283 C564.47815,572.9283 583.511,572.9283 602.5437,572.9283 C627.5926,496.35962 652.6415,419.79092 677.69037,343.22226 z" stroke="Black" stroke-width="0" fill="#7F8DF0" fill-opacity="1" />
  </g>
  <g id="Layer_02">
    <path d="M396.734,147.94882 C396.8762,144.36372 395.10587,140.02092 392.22336,137.05925 C389.3409,134.09758 385.34625,132.51706 381.3338,132.54863 C377.32138,132.58022 373.29117,134.22386 370.44424,137.05925 C367.5973,139.8946 365.93362,143.92172 365.93362,147.94882 C365.93362,151.9759 367.5973,156.00302 370.44424,158.83838 C373.29117,161.67377 377.32138,163.31743 381.3338,163.349 C385.34625,163.38057 389.3409,161.80006 392.22336,158.83838 C395.10587,155.87672 396.8762,151.5339 396.734,147.94882 z" stroke="Black" stroke-width="0" fill="#060C34" fill-opacity="1" />
    <path d="M691.01733,343.22226 C674.06287,343.22226 657.10834,343.22226 640.1539,343.22226 C622.3243,397.47662 604.49475,451.73102 586.66516,505.98538 C569.16376,451.73102 551.66235,397.47662 534.16095,343.22226 C517.75336,343.22226 501.34583,343.22226 484.93823,343.22226 C466.8899,397.0391 448.84155,450.85593 430.79324,504.67276 C413.51056,450.85593 396.22794,397.0391 378.94528,343.22226 C360.5688,343.22226 342.19232,343.22226 323.81583,343.22226 C348.97412,419.79092 374.13242,496.35962 399.29068,572.9283 C418.21408,572.9283 437.1375,572.9283 456.06088,572.9283 C473.4529,521.0804 490.84494,469.23242 508.23697,417.3845 C525.0821,469.23242 541.9272,521.0804 558.77234,572.9283 C577.8051,572.9283 596.8379,572.9283 615.87067,572.9283 C640.91956,496.35962 665.9685,419.79092 691.01733,343.22226 z" stroke="Black" stroke-width="0" fill="#060C34" fill-opacity="1" />
  </g>
  <polygon fill="#060C34" fill-opacity="1" points="478.4934,268.24683 481.0886,270.85757 484.544,272.12695 488.2121,271.8171 489.68903,271.37015 491.1369,270.9203 493.95,270.01047 495.3175,269.5499 497.9793,268.61487 499.27548,268.13916 501.80444,267.1725 503.0392,266.68103 505.45422,265.68054 506.63602,265.17026 508.95367,264.1306 510.09143,263.60092 512.3295,262.52115 513.43164,261.97046 515.6068,260.8474 516.6819,260.27493 518.81213,259.10742 519.8694,258.51227 521.9734,257.29865 523.0223,256.67972 525.1194,255.41692 526.1699,254.77264 531.0121,251.70012 532.6676,250.5982 537.72736,247.02019 541.1562,244.38116 546.3305,239.98091 548.0541,238.38594 553.19006,233.18375 556.55585,229.33885 561.4752,222.96501 563.0712,220.66951 567.69336,213.2375 570.62445,207.81126 574.7533,198.91745 576.05023,195.74228 563.51,179.99245 560.7941,181.18675 559.4204,181.7565 552.4198,184.31223 548.1364,185.59502 542.3637,186.98969 539.46234,187.54462 533.65424,188.3553 529.31244,188.69104 522.149,188.7081 520.732,188.62769 515.35645,188.05414 511.51663,187.38953 506.47046,186.21625 499.2748,183.96983 495.943,182.692 490.045,179.99873 486.15945,177.81174 484.93842,177.01271 489.2547,186.98157 490.9163,167.1263 491.7956,147.16386 491.9396,137.15689 491.78406,122.130684 490.88217,102.09723 490.1337,92.0944 488.0439,72.14593 485.9613,57.25754 484.3294,47.377556 481.52063,32.640076 479.44955,23.838503 478.0682,20.097301 477.2304,18.291014 475.21365,14.823899 474.01532,13.179113 471.2103,10.128517 469.6007,8.75904 466.00385,6.4371843 464.051,5.5247397 459.9625,4.257858 457.88196,3.9081254 453.7669,3.74026 451.76486,3.8937118 447.91324,4.6031075 442.5284,6.48174 440.8259,7.2850227 435.93225,10.143077 432.81058,12.395697 420.99893,22.423746 411.01837,31.696854 406.1512,36.504856 396.68143,46.452297 392.08572,51.58657 383.19135,62.163956 378.89938,67.60126 370.6417,78.75746 366.6817,84.46955 359.1138,96.14463 355.51105,102.100266 348.67957,114.22859 345.4553,120.39351 339.3984,132.90422 336.56885,139.24164 331.31412,152.05937 328.8914,158.53127 324.45966,171.57951 322.45093,178.14694 318.8489,191.34677 335.3129,184.82419 329.9345,184.14725 319.2361,182.4197 306.01288,179.55872 294.3006,176.31694 285.99637,173.5906 279.0576,171.03056 266.78864,165.85475 253.54056,159.28546 250.94511,157.87247 222.99571,174.46915 223.34383,178.87048 224.69159,189.75665 227.14049,202.59058 228.67438,208.91197 232.29692,221.36444 237.3454,235.57999 242.50824,248.01341 246.97015,257.2174 250.71964,263.82077 256.02197,271.633 259.0637,275.43512 263.58102,280.3249 266.0515,282.66708 270.5787,286.4498 275.29224,289.8248 282.11545,293.9206 291.11963,298.2153 297.1849,300.53165 297.1856,300.5319 283.78632,279.19247 280.7629,298.2708 275.09467,326.6133 271.82037,340.61642 264.55792,368.1853 259.29407,386.17624 255.17807,399.43146 246.66444,425.2477 238.88828,446.99774 234.1703,458.71756 226.4088,475.55615 222.1797,483.80154 219.10974,489.23865 214.06139,497.33908 206.36873,508.11783 202.04242,513.5247 193.65154,523.0171 186.97722,529.8609 176.01823,540.1296 159.97166,553.5817 151.4687,560.10114 138.2902,569.50903 120.24723,581.1482 111.16273,586.49207 93.19131,596.04913 80.14367,602.073 71.787704,605.48663 70.85621,644.7488 90.9795,647.3348 97.72185,647.9584 112.94312,648.91235 123.12258,649.19495 133.71625,649.18414 142.56161,648.945 154.22856,648.32495 171.31769,646.80914 179.61409,645.8133 195.5668,643.4092 210.4784,640.5249 192.91202,629.63965 199.85046,646.3178 204.88531,659.9469 207.87279,668.77515 213.85129,688.6208 217.12415,701.1674 221.10217,718.88605 225.17332,741.87305 225.91762,747.00525 255.61517,756.1838 261.35385,746.1125 263.92825,741.05536 268.52817,730.9299 270.57065,725.8735 274.19046,715.8043 275.78305,710.8013 279.79453,695.9784 281.92282,686.3011 285.1758,667.6012 287.0049,654.2924 290.02008,630.07574 291.60187,619.4592 293.7312,608.8458 295.34723,602.7482 298.35724,593.46344 300.39557,587.9345 304.82477,576.7873 307.6672,569.9677 313.0636,558.08 316.3044,551.74756 323.68323,539.11664 326.37048,534.95184 335.03888,522.56476 341.268,514.3771 354.59763,498.09885 365.16452,485.9049 383.36685,465.41983 405.2128,440.1601 415.73483,427.0718 426.26315,412.87173 430.83148,406.28024 437.4213,396.26083 445.73444,382.66626 449.69556,375.77292 457.24362,361.80463 462.59027,351.17755 470.9361,333.19855 480.08252,311.2203 482.6748,304.473 487.07535,292.01453 489.72372,283.42276 491.32123,277.54254 494.0188,265.36285 493.94058,261.6825 492.31427,258.38004 489.44467,256.0743 485.12778,255.2131 481.59308,256.2412 478.82407,258.66684 477.3396,262.03543 474.59012,273.03003 472.98,278.37918 470.3126,286.267 465.8435,297.9045 463.17416,304.32794 453.7562,325.34113 445.25473,342.4316 439.84924,352.48923 432.2672,365.6572 428.30923,372.13336 420.0454,384.86145 413.53192,394.2046 409.03397,400.3336 398.70728,413.50223 388.30637,425.7456 366.29788,449.844 347.4784,469.90784 336.30908,482.11462 321.8982,498.77963 315.0091,507.34354 305.21527,520.5647 302.1214,525.08746 293.44696,539.0551 289.54846,546.1862 283.23926,559.13403 280.04132,566.25824 275.0638,577.8672 272.64233,583.92206 268.84738,594.63727 266.70065,601.92645 263.83527,614.36615 261.79733,625.8958 258.0992,650.21655 256.01746,662.8497 252.56299,679.9691 250.42525,688.5789 246.55669,701.4713 245.06715,705.74927 241.74869,714.25604 239.90474,718.47797 235.8216,726.84814 233.56908,730.9918 228.60744,739.1861 257.65454,743.03815 257.00677,737.52576 253.31303,712.7947 249.56126,693.6804 246.41176,680.1151 240.55998,658.6008 237.59834,649.00183 232.55188,634.1158 225.47267,615.71265 203.41924,605.756 189.9465,607.98566 175.39333,609.7781 167.80757,610.47906 152.20679,611.4393 141.60847,611.7165 133.61925,611.716 124.118996,611.4688 115.01743,610.9692 101.40184,609.74475 95.36808,609.0214 77.34908,606.20776 85.34075,642.28973 95.22286,638.5702 110.304245,632.0875 130.69818,621.94806 140.91597,616.2993 161.16359,603.9991 175.99263,594.0061 185.6156,587.0282 204.0132,572.43494 216.86992,561.01337 224.9046,553.20996 235.35095,542.0269 240.8559,535.5135 250.78041,522.39075 257.33978,512.475 261.33182,505.84064 266.79822,495.86456 275.7767,475.73245 280.76273,462.31235 288.44412,438.8628 296.5239,411.9335 300.4301,398.03177 305.42322,379.09024 312.27356,349.90356 315.33386,335.00513 320.5472,304.69724 323.23312,284.17633 309.8326,262.83652 309.8319,262.83627 305.97968,261.49023 300.51627,259.0789 296.65762,256.91718 294.1687,255.24728 291.93176,253.49406 290.72983,252.42284 288.37994,250.026 286.65887,247.99934 283.32004,243.36159 280.6461,238.9397 277.06073,232.02315 272.35938,221.5073 267.7139,209.47836 264.4087,199.17561 263.00867,194.02467 260.74686,183.71553 259.43994,175.10524 259.0715,171.65239 233.92503,189.75671 236.96548,191.30649 252.464,198.47441 266.79742,204.0678 274.9004,206.80984 284.59735,209.70424 298.22305,213.08058 313.51343,215.95723 325.82178,217.60368 331.9911,218.2107 351.32043,199.06053 354.2435,187.07634 355.89505,181.1037 359.57828,169.21698 361.60883,163.3106 366.0458,151.59163 368.4512,145.78708 373.631,134.30745 376.4029,128.64005 382.3029,117.468735 385.4279,111.97237 392.0183,101.17613 395.47943,95.88318 402.72232,85.52461 406.49875,80.46514 414.34778,70.60069 418.41458,65.801315 426.8188,56.482372 431.14944,51.96732 440.05075,43.23648 450.06738,34.224785 451.57333,33.06748 453.42627,31.886261 453.91226,31.633339 454.88266,31.225876 455.07175,31.155106 455.0249,31.144184 454.67963,31.103228 454.40945,31.04647 453.7822,30.828814 453.47598,30.674313 452.99417,30.339243 452.84875,30.200302 452.77496,30.089294 452.83954,30.155256 453.13254,30.59578 453.33752,30.988073 453.80692,32.1378 455.39334,38.380234 458.4317,52.26965 460.23157,61.593803 462.589,75.66353 465.0849,94.55078 466.05304,104.03675 467.4256,123.06564 467.96002,137.36513 468.0805,146.90086 467.75632,165.95375 466.683,184.94487 472.4927,195.9206 474.51697,197.1615 480.1294,200.1274 487.8642,203.41133 492.09744,204.90277 501.17413,207.46713 507.59427,208.77629 512.559,209.49557 519.63293,210.05408 521.4841,210.10815 530.69165,209.83528 536.1592,209.26189 543.3562,208.05675 546.90674,207.27672 553.89484,205.38597 559.02386,203.69655 567.32556,200.40785 568.9452,199.68379 572.1403,198.17328 557.3237,188.59952 556.27124,191.3806 552.94604,199.09221 550.602,203.73892 546.9176,210.03125 545.6527,211.96335 541.75867,217.30843 539.089,220.52837 534.99664,224.91267 533.6104,226.26584 529.39966,230.0456 526.55774,232.36168 522.2552,235.5799 520.8146,236.59586 516.48773,239.51201 515.53046,240.13467 513.639,241.34415 512.7023,241.93173 510.84048,243.07472 509.9127,243.63083 508.0567,244.7146 507.12576,245.24327 505.25104,246.2765 504.30444,246.78206 502.38574,247.77383 501.41058,248.26062 499.42133,249.21817 498.4043,249.68976 496.31906,250.62244 495.24756,251.08342 493.03967,251.99619 491.90048,252.44864 489.5457,253.34967 488.3271,253.79814 485.80054,254.69131 484.49002,255.13652 483.1463,255.58118 479.95282,257.4122 477.83237,260.42133 477.18228,264.04465 478.4934,268.24683" xmlns="" />
</svg>